Simulation
nRows=48
nColumns=15
endheader
time  TH_x TH_y TH_z SC_y  SC_z  SC_x  AC_y  AC_z  AC_x  GH_y  GH_z  GH_yy  EL_x  PS_y
0.0  0.000000  0.000000  0.000000  -30.75341062003415  -1.8328179450401498  11.612671669786254  57.089788946563274  -6.314825345740477  -12.895458340276141  17.86640680558998  11.999708304458505  6.239056730010228  25.590961337436486  0.000000
0.015  0.000000  0.000000  0.000000  -30.855935692052345  -1.8784643207233573  11.705506521922446  57.12741763112583  -6.289700874040338  -12.923723796710709  17.79203035176424  12.291103615356437  6.142848412410589  25.59734379816757  0.000000
0.03  0.000000  0.000000  0.000000  -30.818894130584123  -1.8332603357955737  11.78705933213097  57.147071098866796  -6.300555356591224  -12.951359860014112  17.80715694809161  12.608457778920096  6.085649239806471  25.581937221762303  0.000000
0.045  0.000000  0.000000  0.000000  -30.846113637966525  -1.7968397380705818  11.874566183710835  57.15274201972314  -6.321938924837664  -12.973034396500195  17.869307379704797  12.982170611367051  5.9810080359705164  25.549864726876038  0.000000
0.06  0.000000  0.000000  0.000000  -30.889512337448554  -1.7720812527268726  11.965836194591983  57.16621743193642  -6.363418877090751  -12.995772901076256  17.934127941705157  13.40149732229231  5.759871471133958  25.511418858645843  0.000000
0.075  0.000000  0.000000  0.000000  -30.951410554000915  -1.7515916678743029  12.069020423653143  57.189262969968446  -6.4160182813021125  -13.019962954716995  18.02858031924297  13.86091233159193  5.4601826900087325  25.460713714289913  0.000000
0.09  0.000000  0.000000  0.000000  -31.01187258187086  -1.727453911897115  12.187004870405227  57.209979948812695  -6.480342224436858  -13.045371401229731  18.139887825693446  14.350708112887556  5.078846453379976  25.40736148293662  0.000000
0.105  0.000000  0.000000  0.000000  -31.073302762449853  -1.6986136530924045  12.31723208401934  57.23645182795829  -6.55297181879634  -13.072360770144101  18.26991695177382  14.875920880163724  4.630924112138788  25.348254185405022  0.000000
0.12  0.000000  0.000000  0.000000  -31.133144232365314  -1.6640775891910908  12.46068983798017  57.26146939487692  -6.628909281443432  -13.101861874724145  18.41342879205972  15.431903298287622  4.1262681338159855  25.287582731565596  0.000000
0.135  0.000000  0.000000  0.000000  -31.1900499630652  -1.6236694552725215  12.614320672262691  57.28837299609689  -6.705972798202717  -13.133817754906756  18.56566518067754  16.02016078598101  3.5722545604212894  25.222790903937348  0.000000
0.15  0.000000  0.000000  0.000000  -31.24471172149024  -1.5781012602866678  12.77724645949501  57.315705417550134  -6.77929321228205  -13.168733557055107  18.722740016034873  16.638049011982798  2.9780510531819915  25.15576052875861  0.000000
0.16499999999999998  0.000000  0.000000  0.000000  -31.2960314865318  -1.5272479257729161  12.94693339518455  57.34337662501843  -6.84597100448997  -13.205978497699594  18.880866922063614  17.284680163238868  2.350766000567665  25.085370377725003  0.000000
0.18  0.000000  0.000000  0.000000  -31.344195936205598  -1.4718855510746756  13.121277449595322  57.372057754018066  -6.902003389407644  -13.245690649392756  19.036836745324212  17.958200709440728  1.6974097729192161  25.01210286377534  0.000000
0.195  0.000000  0.000000  0.000000  -31.38871370003786  -1.4126618563267792  13.298694803039199  57.40060147999692  -6.944443317819856  -13.28810844894772  19.188001906091497  18.656926338729722  1.0246587919561223  24.93589513163363  0.000000
0.21  0.000000  0.000000  0.000000  -31.429939031743096  -1.3498022482484513  13.478636138374807  57.4305853982155  -6.971885081190497  -13.33312606687642  19.332002593853495  19.379313475096794  0.337824959564343  24.856625259633248  0.000000
0.22499999999999998  0.000000  0.000000  0.000000  -31.46855859993324  -1.2832663402996343  13.6596693364466  57.461355536450824  -6.981855094057665  -13.3795911557822  19.46779860238804  20.123694851501256  -0.3568434336370838  24.774601728726086  0.000000
0.24  0.000000  0.000000  0.000000  -31.504465307623676  -1.2130920368981066  13.839716341546282  57.49418075014751  -6.971892331726324  -13.426892925505637  19.59346884612724  20.888593942970168  -1.0555388844254368  24.690551604821348  0.000000
0.255  0.000000  0.000000  0.000000  -31.537637318005117  -1.1393344205755507  14.019209053907852  57.528331687622575  -6.941647843635105  -13.475355865561218  19.707684677722032  21.67199273954097  -1.7538681812646537  24.60427658864529  0.000000
0.27  0.000000  0.000000  0.000000  -31.569427769969305  -1.0627559736327512  14.200737861606868  57.565019897240056  -6.893179316244798  -13.526062260902934  19.809248849724256  22.471584345250626  -2.4483552006019553  24.515639815692925  0.000000
0.285  0.000000  0.000000  0.000000  -31.601534915542985  -0.9838284870186704  14.384682354146735  57.60526728589722  -6.827487863214878  -13.577613010362716  19.898261555362446  23.284664894562574  -3.1349785339217484  24.4243969263318  0.000000
0.3  0.000000  0.000000  0.000000  -31.63389689565643  -0.9030915681127382  14.568396648945594  57.65122774609704  -6.744053509617792  -13.627101154352282  19.974334673553518  24.108030844881448  -3.8120822859938137  24.330441150244543  0.000000
0.315  0.000000  0.000000  0.000000  -31.666729955152345  -0.8210891120177822  14.749056978811101  57.703710828337314  -6.642092452723147  -13.671398847211258  20.038122555454592  24.938146939362763  -4.477116797700727  24.233906449540804  0.000000
0.32999999999999996  0.000000  0.000000  0.000000  -31.70011223661084  -0.7376653304732956  14.922825421083111  57.76377266224267  -6.5202884859105215  -13.706592733944516  20.090576909663266  25.771167296226825  -5.128252671872037  24.134995125251066  0.000000
0.345  0.000000  0.000000  0.000000  -31.73406632157809  -0.6521989015450087  15.08678221084194  57.83153305667384  -6.377708183143035  -13.729150516057203  20.13334848498735  26.603207723553776  -5.7628901572459  24.03390182743609  0.000000
0.36  0.000000  0.000000  0.000000  -31.768669512624943  -0.5637677819678034  15.23860371143158  57.90807776465191  -6.214102095424025  -13.735889639157056  20.167716497517134  27.43096601775446  -6.379892794520336  23.930726504054448  0.000000
0.375  0.000000  0.000000  0.000000  -31.80446025476041  -0.4719051591326414  15.377569601640536  57.994009793027296  -6.030067059652728  -13.724707839095096  20.195032516003263  28.252001906082626  -6.978200411620954  23.825421522998862  0.000000
0.39  0.000000  0.000000  0.000000  -31.84182401901207  -0.3768004186895598  15.50471735645419  58.090180208318905  -5.826974733730526  -13.695404233289572  20.216332989138504  29.064681733664276  -7.557534382189973  23.717794071661086  0.000000
0.40499999999999997  0.000000  0.000000  0.000000  -31.880925438420476  -0.2793421116870104  15.623487326139816  58.1965376534099  -5.607141460455586  -13.65020101941974  20.232486532166902  29.868180387572423  -8.117598758504055  23.60760086466044  0.000000
0.42  0.000000  0.000000  0.000000  -31.921718983297563  -0.18091346226850216  15.739711373166093  58.31292678469009  -5.37404942514726  -13.594293784702995  20.24392063149756  30.66272821791004  -8.658991137794962  23.494529471038796  0.000000
0.435  0.000000  0.000000  0.000000  -31.964125031786963  -0.08344975362052541  15.861008058595097  58.43808174618259  -5.131391971121546  -13.535572762052999  20.251092917907933  31.44932914879196  -9.18197859218165  23.378542210189128  0.000000
0.44999999999999996  0.000000  0.000000  0.000000  -32.00880701941079  0.0115513884036523  15.996032779878623  58.57017082804191  -4.8833780304751215  -13.482479358207268  20.25448179921702  32.229082170098145  -9.686953707207362  23.25981136633868  0.000000
0.46499999999999997  0.000000  0.000000  0.000000  -32.05694056405314  0.10344744004823185  16.14661981839082  58.7069188614976  -4.6293686117986494  -13.438696387425075  20.254637306537614  33.00270791255172  -10.17457765524133  23.138276284980055  0.000000
0.48  0.000000  0.000000  0.000000  -32.10809384837747  0.19183383737343784  16.307869240765  58.845895738102406  -4.364147906154992  -13.404235620899206  20.251652234776945  33.76998915099745  -10.645946783831443  23.01339214886408  0.000000
0.495  0.000000  0.000000  0.000000  -32.16128668482105  0.2774599432755486  16.47636590708523  58.98476442507329  -4.0851054415102945  -13.378251527103513  20.245756514535167  34.52975530064572  -11.101799066206135  22.884112665810587  0.000000
0.51  0.000000  0.000000  0.000000  -32.21674065588789  0.36206514543524015  16.65048779226048  59.122193324086425  -3.7921475156291153  -13.35868281819195  20.23752380025828  35.280474609541336  -11.542992015351969  22.74969548719073  0.000000
0.525  0.000000  0.000000  0.000000  -32.275330548531876  0.4469735417551346  16.829246741677117  59.257657265880205  -3.485703591197501  -13.3433733797484  20.227751905604443  36.02075731665376  -11.970494203791239  22.609917363376944  0.000000
0.54  0.000000  0.000000  0.000000  -32.33783482788549  0.5329036390656902  17.012016555027206  59.39106554749116  -3.1662672219389267  -13.330698819510198  20.217325161855175  36.74947014628558  -12.38538068305797  22.464708995208426  0.000000
0.5549999999999999  0.000000  0.000000  0.000000  -32.40486262457081  0.620293268143597  17.198595374642025  59.522373654025415  -2.834496794972299  -13.31942293397401  20.207239413730836  37.46562988978033  -12.78864409779275  22.31407817338304  0.000000
0.57  0.000000  0.000000  0.000000  -32.476913653273044  0.7094967730432359  17.388895415666745  59.65169788330218  -2.4911923379866296  -13.308545918162498  20.19845831214594  38.16851608269269  -13.181428494299263  22.15808424471061  0.000000
0.585  0.000000  0.000000  0.000000  -32.55450942874276  0.8008979310870432  17.58273163782491  59.77897167024441  -2.137080555000104  -13.29687696379094  20.19202597992289  38.85751769196071  -13.564736012357164  21.996802521210615  0.000000
0.6  0.000000  0.000000  0.000000  -32.637847795320624  0.8949286323699879  17.779654176138596  59.904052904724956  -1.7727139058412509  -13.283395440797282  20.188850796043216  39.53217305585489  -13.939582421269503  21.83042194582626  0.000000
0.615  0.000000  0.000000  0.000000  -32.72700563106662  0.9918142744805241  17.979805062770655  60.026621536673545  -1.398987319937436  -13.267337191535082  20.189795242090426  40.19206284563021  -14.30685337601335  21.659178161935806  0.000000
0.63  0.000000  0.000000  0.000000  -32.822345413963674  1.0917248019511974  18.18379365464469  60.14654430537811  -1.017369578087866  -13.247987435076295  20.19585938616694  40.83710992698818  -14.667513527945442  21.4830412283968  0.000000
0.645  0.000000  0.000000  0.000000  -32.924115460598124  1.1950917962649839  18.39190559357793  60.26373747809711  -0.6291826310735621  -13.224718331508543  20.207851338719017  41.467212978164966  -15.022682092257643  21.302403518846056  0.000000
0.6599999999999999  0.000000  0.000000  0.000000  -33.03258754942022  1.3022739159841321  18.604350992959013  60.37819272061148  -0.235512258569486  -13.197002885384313  20.22629761780061  42.08209132318097  -15.373144909390685  21.1177800731597  0.000000
0.6749999999999999  0.000000  0.000000  0.000000  -33.1482534875757  1.413435383618044  18.821405769370358  60.48998752808159  0.16244979405396642  -13.164042061449504  20.25169368521632  42.68149138733179  -15.71959952183603  20.929494600773317  0.000000
0.69  0.000000  0.000000  0.000000  -33.27151459585364  1.5288609306769927  19.043315497513774  60.59918537907061  0.5632226922369689  -13.124895511102231  20.284558817329746  43.265317340554425  -16.06271841414029  20.737925192769705  0.000000
0.705  0.000000  0.000000  0.000000  -33.40264471647977  1.6492988609095924  19.27024247435335  60.70596707455116  0.965071003765494  -13.078210675863549  20.325453634217528  43.83336175008251  -16.403113177926194  20.54344714393652  0.000000
